<mxfile host="app.diagrams.net" modified="2024-07-15T08:22:45.513Z" agent="Mozilla/5.0 (Windows NT 10.0; Win64; x64) AppleWebKit/537.36 (KHTML, like Gecko) Chrome/126.0.0.0 Safari/537.36" version="24.4.4" etag="F1dB_yUdfc38eRDNfa5K" type="github">
  <diagram name="第 1 页" id="N4iGCeF-vZbdoLu39UP0">
    <mxGraphModel>
      <root>
        <mxCell id="0" />
        <mxCell id="1" parent="0" />
      </root>
    </mxGraphModel>
  </diagram>
</mxfile>
